<svg xmlns="http://www.w3.org/2000/svg" viewBox="0 0 64 64" role="img" aria-label="Complex Labs">
  <rect width="64" height="64" rx="14" fill="#04070d"/>
  <g fill="none" stroke="#45e6c8" stroke-width="2.4" stroke-linecap="round" stroke-linejoin="round">
    <!-- grafo hexagonal de nodos: estructura central de un sistema complejo -->
    <path d="M32 14 L48 23 L48 41 L32 50 L16 41 L16 23 Z"/>
    <path d="M32 14 L32 32 M48 23 L32 32 M48 41 L32 32 M32 50 L32 32 M16 41 L32 32 M16 23 L32 32"/>
  </g>
  <g fill="#45e6c8">
    <circle cx="32" cy="32" r="4.2"/>
    <circle cx="32" cy="14" r="3"/>
    <circle cx="48" cy="23" r="3"/>
    <circle cx="48" cy="41" r="3"/>
    <circle cx="32" cy="50" r="3"/>
    <circle cx="16" cy="41" r="3"/>
    <circle cx="16" cy="23" r="3"/>
  </g>
</svg>
